<svg id="visual" viewBox="0 0 450 900" width="450" height="900" xmlns="http://www.w3.org/2000/svg" xmlns:xlink="http://www.w3.org/1999/xlink" version="1.1"><rect x="0" y="0" width="450" height="900" fill="#01964F"></rect><defs><linearGradient id="grad1_0" x1="0%" y1="100%" x2="100%" y2="0%"><stop offset="30%" stop-color="#01964f" stop-opacity="1"></stop><stop offset="70%" stop-color="#01964f" stop-opacity="1"></stop></linearGradient></defs><defs><linearGradient id="grad2_0" x1="0%" y1="100%" x2="100%" y2="0%"><stop offset="30%" stop-color="#01964f" stop-opacity="1"></stop><stop offset="70%" stop-color="#01964f" stop-opacity="1"></stop></linearGradient></defs><g transform="translate(450, 900)"><path d="M-337.5 0C-330 -44 -322.5 -87.9 -304.9 -126.3C-287.3 -164.7 -259.7 -197.5 -229.8 -229.8C-199.9 -262.1 -167.8 -293.9 -129.2 -311.8C-90.5 -329.7 -45.2 -333.6 0 -337.5L0 0Z" fill="#FDB700"></path></g><g transform="translate(0, 0)"><path d="M337.5 0C328 42.8 318.5 85.7 302.1 125.1C285.7 164.6 262.5 200.7 233.3 233.3C204.2 266 169 295 129.2 311.8C89.3 328.6 44.6 333 0 337.5L0 0Z" fill="#FDB700"></path></g></svg>