<svg id="visual" viewBox="0 0 960 540" width="960" height="540" xmlns="http://www.w3.org/2000/svg" xmlns:xlink="http://www.w3.org/1999/xlink" version="1.1"><rect x="0" y="0" width="960" height="540" fill="#00964F"></rect><defs><linearGradient id="grad1_0" x1="43.8%" y1="100%" x2="100%" y2="0%"><stop offset="14.444444444444446%" stop-color="#00964f" stop-opacity="1"></stop><stop offset="85.55555555555554%" stop-color="#00964f" stop-opacity="1"></stop></linearGradient></defs><defs><linearGradient id="grad2_0" x1="0%" y1="100%" x2="56.3%" y2="0%"><stop offset="14.444444444444446%" stop-color="#00964f" stop-opacity="1"></stop><stop offset="85.55555555555554%" stop-color="#00964f" stop-opacity="1"></stop></linearGradient></defs><g transform="translate(960, 540)"><path d="M-405 0C-381 -44.5 -357.1 -89.1 -341.8 -141.6C-326.6 -194.1 -320.1 -254.6 -286.4 -286.4C-252.6 -318.2 -191.6 -321.3 -139.3 -336.3C-87 -351.3 -43.5 -378.1 0 -405L0 0Z" fill="#FDB700"></path></g><g transform="translate(0, 0)"><path d="M405 0C399.4 57.1 393.9 114.1 363.1 150.4C332.3 186.6 276.3 202.1 241.1 241.1C206 280.2 191.7 342.9 155 374.2C118.3 405.4 59.1 405.2 0 405L0 0Z" fill="#FDB700"></path></g></svg>